<svg width="1440" height="213" viewBox="0 0 1440 213" fill="none" xmlns="http://www.w3.org/2000/svg">
<path d="M0 53L34.3 63.7C68.6 74 137 96 206 95.7C274.3 96 343 74 411 47.7C480 21 549 -11 617 5C685.7 21 754 85 823 106.3C891.4 128 960 106 1029 90.3C1097.1 74 1166 64 1234 63.7C1302.9 64 1371 74 1406 79.7L1440 85V213H1405.7C1371.4 213 1303 213 1234 213C1165.7 213 1097 213 1029 213C960 213 891 213 823 213C754.3 213 686 213 617 213C548.6 213 480 213 411 213C342.9 213 274 213 206 213C137.1 213 69 213 34 213H0V53Z" fill="#090A0F"/>
</svg>
